<svg viewBox="0 0 48 48" fill="none" xmlns="http://www.w3.org/2000/svg">
  <!-- Rounded chunky G -->
  <path d="M34 26C34 32.075 29.075 37 23 37C16.925 37 12 32.075 12 26C12 19.925 16.925 15 23 15C26.5 15 29.5 16.5 31.5 18.5" stroke="#7C9885" stroke-width="5" stroke-linecap="round" stroke-linejoin="round"/>
  <path d="M34 26H23" stroke="#7C9885" stroke-width="5" stroke-linecap="round"/>
  <!-- Starburst sparkle -->
  <path d="M40 8L41.5 12.5L46 14L41.5 15.5L40 20L38.5 15.5L34 14L38.5 12.5L40 8Z" fill="#7C9885"/>
  <!-- Small accent sparkle -->
  <path d="M44 22L44.75 24L46.5 24.75L44.75 25.5L44 27.5L43.25 25.5L41.5 24.75L43.25 24L44 22Z" fill="#9DB4A4"/>
</svg>
